# xmcd
#
# Track frame offsets: 
#        150
#        3005
#        5728
#        15530
#        30765
#        41802
#        55510
#        73312
#        83455
#        96750
#        108618
#        119617
#        131578
#        142401
#        156044
#        165470
#        177644
#        186252
#        193941
#        204962
#        213871
#        225115
#        232933
#        242332
#        256447
#        266012
#        277941
#        289474
#        299075
#
# Disc length: 4113 seconds
#
# Revision: 0
# Processed by: cddbd v1.5.2PL0 Copyright (c) Steve Scherf et al.
# Submitted via: ExactAudioCopy v0.95b3
#
DISCID=9b100f1d
DTITLE=The Beatles  - Hope We Passed The Audition  FLAC
DYEAR=1900
DGENRE=
TTITLE0=My Bonnie (German Intro)
TTITLE1=My Bonnie (English Intro)
TTITLE2=My Bonnie (main)
TTITLE3=The Saints
TTITLE4=Cry For A Shadow
TTITLE5=Why (Can't You Love Me Again)
TTITLE6=Nobody's Child
TTITLE7=Ain't She Sweet
TTITLE8=Take Out Some Insurance On Me Baby
TTITLE9=Like Dreamers Do
TTITLE10=Money
TTITLE11=To Know Her Is To Love Her
TTITLE12=Memphis
TTITLE13=Til There Was You
TTITLE14=Sure To Fall
TTITLE15=Besame Mucho
TTITLE16=Love Of The Loved
TTITLE17=Hello Little Girl
TTITLE18=Three Cool Cats
TTITLE19=September In The Rain
TTITLE20=Take Good Care Of My Baby
TTITLE21=The Sheik Of Araby
TTITLE22=Crying Waiting Hoping
TTITLE23=Searchin'
TTITLE24=Sweet Georgia Brown (backing)
TTITLE25=Besame Mucho
TTITLE26=Love Me Do
TTITLE27=Sweet Georgia Brown (1964 vocal)
TTITLE28=Sweet Georgia Brown (1962 vocal)
EXTD=
EXTT0=
EXTT1=
EXTT2=
EXTT3=
EXTT4=
EXTT5=
EXTT6=
EXTT7=
EXTT8=
EXTT9=
EXTT10=
EXTT11=
EXTT12=
EXTT13=
EXTT14=
EXTT15=
EXTT16=
EXTT17=
EXTT18=
EXTT19=
EXTT20=
EXTT21=
EXTT22=
EXTT23=
EXTT24=
EXTT25=
EXTT26=
EXTT27=
EXTT28=
PLAYORDER=
